<?xml version="1.0" encoding="UTF-8"?>
<svg version="1.1" xmlns="http://www.w3.org/2000/svg" width="500" height="500">
<path d="M0 0 C165 0 330 0 500 0 C500 165 500 330 500 500 C335 500 170 500 0 500 C0 335 0 170 0 0 Z " fill="#FEFEFE" transform="translate(0,0)"/>
<path d="M0 0 C3.39536881 2.64655904 4.8337798 4.13960585 5.65942383 8.41333008 C5.67513428 9.68587646 5.69084473 10.95842285 5.70703125 12.26953125 C5.72971321 13.29103523 5.72971321 13.29103523 5.75285339 14.33317566 C5.79560078 16.49329063 5.80455435 18.65200493 5.8125 20.8125 C5.83565489 22.28324002 5.86102231 23.75394698 5.88867188 25.22460938 C5.9513916 28.81637971 5.98383125 32.40768404 6 36 C6.46978271 35.58862793 6.93956543 35.17725586 7.42358398 34.75341797 C8.04563721 34.21346191 8.66769043 33.67350586 9.30859375 33.1171875 C9.92275146 32.58206543 10.53690918 32.04694336 11.16967773 31.49560547 C17.97164509 25.93753531 25.55103562 26.17962065 34 27 C43.27715241 29.04870449 50.64662104 35.11834221 55.875 42.9375 C56.61630541 44.2739018 57.32608302 45.62838074 58 47 C58.31839844 47.61746094 58.63679688 48.23492187 58.96484375 48.87109375 C62.95695298 58.30866074 62.55893116 72.318371 59.03125 81.83984375 C54.78928669 90.72547145 48.55748411 98.11489462 39.734375 102.6953125 C35.53066674 104.16397208 32.0994641 104.53692438 27.6875 104.5 C26.94419434 104.49790527 26.20088867 104.49581055 25.43505859 104.49365234 C19.06355309 104.31200551 14.28339096 102.61725937 9 99 C7.515 98.01 7.515 98.01 6 97 C5.38125 97.969375 4.7625 98.93875 4.125 99.9375 C2 103 2 103 0 104 C-5.78551532 104.55988858 -5.78551532 104.55988858 -8 104 C-10.62872363 101.33621452 -11.89679978 99.69227374 -12.45410156 95.95385742 C-12.4331543 94.84888916 -12.41220703 93.7439209 -12.390625 92.60546875 C-12.37773437 91.40341797 -12.36484375 90.20136719 -12.3515625 88.96289062 C-12.31804687 87.71701172 -12.28453125 86.47113281 -12.25 85.1875 C-12.23195312 83.92228516 -12.21390625 82.65707031 -12.1953125 81.35351562 C-12.14824589 78.23535263 -12.07650502 75.11757962 -12 72 C-6.39 72 -0.78 72 5 72 C5.721875 73.5675 6.44375 75.135 7.1875 76.75 C10.00017908 82.37535816 13.21331359 85.51702325 19 88 C25.59162211 88.97236662 30.90242583 88.44136264 36.34765625 84.48828125 C41.23564374 80.08562586 43.59187322 74.75476639 44.29296875 68.3046875 C44.64956965 60.76787931 43.32262055 55.23069829 39 49 C34.54766171 44.65366977 30.92013958 43.81116486 24.8125 43.625 C19.59456715 43.69464983 15.87649749 44.10141942 11.65234375 47.25390625 C6.39800505 52.80636346 4.41479843 59.53362827 4 67 C-1.28 67 -6.56 67 -12 67 C-12.11307143 59.00254458 -12.20475471 51.00571301 -12.25906086 43.00767231 C-12.28512841 39.29363057 -12.32047209 35.58016514 -12.37719727 31.86645508 C-12.43162214 28.28080287 -12.46144192 24.69570409 -12.47438622 21.10967064 C-12.48360764 19.74329098 -12.50161581 18.37694081 -12.52865028 17.0107975 C-12.75770482 4.95370646 -12.75770482 4.95370646 -9.68823242 1.66088867 C-6.10590555 -0.55240437 -4.13857722 -0.73903165 0 0 Z " fill="#F4E623" transform="translate(243,168)"/>
<path d="M0 0 C8.57653756 5.10819157 14.23045719 11.79988055 17.30859375 21.375 C17.78475276 25.44102451 17.85328504 29.31394722 17.30859375 33.375 C16.30859375 34.375 16.30859375 34.375 14.06236267 34.49525452 C13.0697493 34.49303391 12.07713593 34.49081329 11.05444336 34.48852539 C9.93335678 34.48844986 8.8122702 34.48837433 7.6572113 34.48829651 C5.82755577 34.48055458 5.82755577 34.48055458 3.9609375 34.47265625 C2.71937393 34.4712413 1.47781036 34.46982635 0.19862366 34.46836853 C-3.10746116 34.46370591 -6.41347771 34.45471497 -9.71954346 34.44366455 C-13.09101775 34.43344827 -16.46249908 34.42887045 -19.83398438 34.42382812 C-26.453144 34.41277395 -33.07227118 34.39601736 -39.69140625 34.375 C-39.07714173 36.6148044 -38.45602237 38.85272959 -37.83203125 41.08984375 C-37.48688477 42.33628662 -37.14173828 43.58272949 -36.78613281 44.86694336 C-34.46238554 52.31340289 -31.3246475 56.58160279 -24.55859375 60.46484375 C-18.10241912 63.61189121 -9.74022023 63.21224207 -2.69140625 62.375 C1.68102597 60.82668831 4.33622199 58.43316927 7.43359375 55.0625 C9.30859375 53.375 9.30859375 53.375 12.55859375 53.125 C13.46609375 53.2075 14.37359375 53.29 15.30859375 53.375 C16.046875 55.625 16.046875 55.625 16.30859375 58.375 C11.93599998 64.3100373 4.38440161 69.38751691 -2.69140625 71.375 C-13.49814555 72.75515728 -23.80402962 71.98081247 -32.87890625 65.625 C-40.82299128 59.19708229 -46.08243179 51.62082791 -47.69140625 41.375 C-48.59965373 29.44866834 -47.14589504 18.55172149 -39.31640625 9.1171875 C-28.78833049 -2.17012449 -14.79018184 -6.99437171 0 0 Z " fill="#F4E626" transform="translate(363.69140625,200.625)"/>
<path d="M0 0 C9.42504115 5.37026154 15.60608258 13.81824773 19 24 C19.13399703 28.00383132 19.04308887 31.9927355 19 36 C13.39 36 7.78 36 2 36 C1.938125 34.515 1.87625 33.03 1.8125 31.5 C1.12260158 24.6398833 -1.62577404 20.2046384 -6.625 15.5625 C-12.39682568 11.76524626 -19.35136512 12.23426575 -26 13 C-31.08729664 15.17472223 -34.8202825 19.07968375 -37.32421875 23.98828125 C-38.64505476 27.92024971 -38.77403691 31.87617354 -39 36 C-44.61 36 -50.22 36 -56 36 C-56.96799498 24.66063028 -53.91533576 16.84550419 -47.3984375 7.76953125 C-35.20086787 -5.8400723 -15.90809722 -6.89706766 0 0 Z " fill="#F4E624" transform="translate(197,199)"/>
<path d="M0 0 C5.61 0 11.22 0 17 0 C18.0209375 2.041875 18.0209375 2.041875 19.0625 4.125 C22.12333411 9.65368612 25.90534488 13.96844829 32 16 C38.53058772 16.83879108 43.92621769 15.99094025 49.7265625 12.84375 C53.97627404 9.39724855 55.75025642 4.9139136 58 0 C63.61 0 69.22 0 75 0 C73.8723989 9.02080879 73.8723989 9.02080879 71.1875 13.1875 C70.68605469 13.98542969 70.18460937 14.78335938 69.66796875 15.60546875 C66.40743439 20.28628271 63.50365593 23.64688111 58.625 26.6875 C57.70976562 27.26886719 56.79453125 27.85023438 55.8515625 28.44921875 C46.65600136 33.45009241 34.94521195 33.49982491 24.81640625 31.3125 C22.36434019 30.39440975 20.23719658 29.35587672 18 28 C17.29875 27.5875 16.5975 27.175 15.875 26.75 C7.84662007 21.39774671 2.68239942 13.15171568 0 4 C0 2.68 0 1.36 0 0 Z " fill="#F4E624" transform="translate(141,240)"/>
<path d="M0 0 C5.94 0 11.88 0 18 0 C17.57048399 8.87666427 14.95540773 16.06997528 8.9375 22.75 C0.80104193 30.06933514 -7.55677036 32.88400552 -18.33813477 32.71289062 C-27.16921626 32.2109863 -34.48511571 28.93339043 -40.75 22.625 C-42.66628139 20.06048099 -43.44448312 18.00728285 -43.6875 14.8125 C-43 11 -43 11 -40.875 8.5 C-37.36779048 6.67015156 -35.90169037 6.23496267 -32 7 C-29.77787072 8.39973377 -27.76490797 9.92527893 -25.734375 11.58984375 C-21.21286075 15.26611998 -15.55483417 14.52280792 -10 14 C-5.47511873 11.85663519 -3.10120677 9.53418303 -1 5 C-0.67 3.35 -0.34 1.7 0 0 Z " fill="#F4E624" transform="translate(107,240)"/>
<path d="M0 0 C2.69990662 1.79993774 4.5418865 3.083773 6 6 C6.0909215 7.8179454 6.11753467 9.63925945 6.11352539 11.45947266 C6.11344986 12.60050446 6.11337433 13.74153625 6.11329651 14.91714478 C6.10813522 16.15362762 6.10297394 17.39011047 6.09765625 18.6640625 C6.0962413 19.92640717 6.09482635 21.18875183 6.09336853 22.48934937 C6.08871078 25.84638299 6.07972408 29.203349 6.06866455 32.56036377 C6.0584377 35.98554906 6.05386818 39.41074134 6.04882812 42.8359375 C6.03778238 49.55731284 6.02050924 56.27864714 6 63 C0.06 63 -5.88 63 -12 63 C-12.09048299 55.65452097 -12.16381996 48.30934807 -12.20724869 40.96342945 C-12.22809576 37.55215001 -12.25635897 34.14127266 -12.30175781 30.73022461 C-12.35365959 26.80587631 -12.37296922 22.88168904 -12.390625 18.95703125 C-12.41127014 17.73603226 -12.43191528 16.51503326 -12.45318604 15.2570343 C-12.45363922 13.54582649 -12.45363922 13.54582649 -12.45410156 11.80004883 C-12.46298401 10.79855301 -12.47186646 9.79705719 -12.48101807 8.76521301 C-11.86730117 5.23715855 -10.44473789 3.56528095 -8 1 C-5.14675563 -0.42662219 -3.16545451 -0.31033868 0 0 Z " fill="#F4E729" transform="translate(119,173)"/>
<path d="M0 0 C0.76183594 -0.01417969 1.52367187 -0.02835938 2.30859375 -0.04296875 C4.79597315 0.21137334 6.41058106 0.94732804 8.5625 2.1875 C8.6875 4.5625 8.6875 4.5625 8.5625 7.1875 C7.9025 7.8475 7.2425 8.5075 6.5625 9.1875 C4.37284754 9.14969724 2.18428101 9.03287144 0 8.875 C-5.00254186 8.82891722 -8.31129177 9.01036083 -12.4375 11.9375 C-21.3643595 20.76563339 -23.04317891 29.46483322 -23.21154785 41.54077148 C-23.22279222 44.4650487 -23.20729085 47.38828117 -23.1875 50.3125 C-23.18894266 53.27861223 -23.19875816 56.24437417 -23.21881104 59.2104187 C-23.22901526 61.04447768 -23.2272812 62.87865048 -23.21234131 64.712677 C-23.21617203 70.96617203 -23.21617203 70.96617203 -25.4375 73.1875 C-27.9375 73.5 -27.9375 73.5 -30.4375 73.1875 C-32.80024913 69.6433763 -32.6951601 68.1298889 -32.7121582 63.92773438 C-32.72169022 62.63629517 -32.73122223 61.34485596 -32.74104309 60.01428223 C-32.74078169 58.60327121 -32.73984477 57.19226018 -32.73828125 55.78125 C-32.74216799 54.33540727 -32.74650262 52.88956569 -32.75126648 51.44372559 C-32.7587275 48.41410621 -32.75843801 45.38460338 -32.75317383 42.35498047 C-32.74737472 38.47090216 -32.76432088 34.58730002 -32.7875185 30.70330048 C-32.80224235 27.71788744 -32.80312949 24.73258951 -32.80000877 21.74714661 C-32.80052252 20.31499792 -32.8057703 18.88284288 -32.81582069 17.45072937 C-32.82814223 15.44961172 -32.81946619 13.44839793 -32.80981445 11.44726562 C-32.81044388 10.30825806 -32.8110733 9.16925049 -32.8117218 7.99572754 C-32.4375 5.1875 -32.4375 5.1875 -31.07829285 3.28063965 C-29.4375 2.1875 -29.4375 2.1875 -26.8125 2.4375 C-24.4375 3.1875 -24.4375 3.1875 -23.4375 4.1875 C-23.20386119 6.03641946 -23.02446365 7.89238031 -22.875 9.75 C-22.79121094 10.76191406 -22.70742188 11.77382812 -22.62109375 12.81640625 C-22.56050781 13.59886719 -22.49992187 14.38132813 -22.4375 15.1875 C-21.81875 14.29998047 -21.81875 14.29998047 -21.1875 13.39453125 C-15.75852078 5.9660396 -9.67396167 0.08156797 0 0 Z " fill="#F4E72D" transform="translate(431.4375,197.8125)"/>
<path d="M0 0 C5.60294501 3.05746292 9.33435004 6.59498528 11.75 12.5625 C12.245 16.0275 12.245 16.0275 12.75 19.5625 C-3.09 19.5625 -18.93 19.5625 -35.25 19.5625 C-34.03912898 12.29727391 -31.72472973 7.40384629 -25.95703125 2.6875 C-17.28461811 -3.19785704 -9.76148179 -4.40056838 0 0 Z " fill="#FEFEF7" transform="translate(360.25,208.4375)"/>
</svg>
